<svg width="200" height="109" viewBox="0 0 200 109" fill="none" xmlns="http://www.w3.org/2000/svg">
<path d="M26.2941 17.6848C11.1996 24.0609 1.80267 38.4884 0.361572 54.3262C0.361572 54.2832 0.373522 54.2427 0.378301 54.1997L14.849 60.039L29.9506 66.1479L45.7978 59.4472C68.0547 50.0309 78.0468 23.419 68.1168 0L26.2941 17.6848Z" fill="#3D6CB4"/>
<path d="M4.56922 79.1485C7.62096 86.0608 12.9597 91.5811 20.4752 94.5963L49.1203 106.147C52.0896 98.8702 52.0286 90.7183 48.951 83.4861C45.8734 76.2538 40.0314 70.534 32.7109 67.5858L29.9109 66.4584L3.83325 77.4228C4.07538 78.021 4.3247 78.5955 4.56922 79.1485Z" fill="#6E91C7"/>
<path d="M14.6055 60.2177L0.257422 54.4747C0.257422 54.517 0.257422 54.5569 0.240835 54.5991C-0.088542 56.8968 -0.057737 59.6849 0.198182 62.5036C0.340758 64.2659 0.584433 66.0188 0.928025 67.7537C1.46119 71.0816 2.60808 74.2195 3.77157 76.9888C3.77847 77.0073 3.78638 77.0253 3.79526 77.0428L29.572 66.2469L14.6055 60.2177Z" fill="#0D47A1"/>
<path fill-rule="evenodd" clip-rule="evenodd" d="M112.767 53.0644C117.07 55.47 120.636 58.9857 123.086 63.2384C125.581 67.5487 126.848 72.4299 126.848 77.7773C126.848 83.1247 125.581 88.0178 123.086 92.3186C120.636 96.5722 117.07 100.089 112.767 102.495C108.424 104.952 103.473 106.184 98.0521 106.184C92.6312 106.184 87.6687 104.945 83.3037 102.497C78.9895 100.102 75.4206 96.5797 72.985 92.3138C70.5134 88.0059 69.2607 83.1247 69.2607 77.7773C69.2607 72.4299 70.5134 67.5415 72.985 63.2431C75.42 58.9774 78.9892 55.4559 83.3037 53.0621C87.6663 50.6143 92.6288 49.375 98.0521 49.375C103.475 49.375 108.428 50.6167 112.767 53.0644ZM112.647 77.7773H112.645C112.645 74.7277 112.001 71.9803 110.727 69.6087C109.535 67.3261 107.728 65.4152 105.508 64.0876C100.89 61.4518 95.2051 61.4518 90.5867 64.0876C88.3658 65.4147 86.5593 67.3257 85.3674 69.6087C84.0932 71.9827 83.4477 74.7301 83.4477 77.7773C83.4477 80.8245 84.098 83.5719 85.3674 85.9507C86.5599 88.2332 88.3663 90.1441 90.5867 91.4718C95.206 94.1042 100.889 94.1042 105.508 91.4718C107.728 90.1434 109.534 88.2327 110.727 85.9507C112.004 83.5767 112.647 80.8268 112.647 77.7773ZM163.345 50.1532L150.66 72.4441L137.975 50.1532H122.957L143.188 85.648V105.406H157.13V85.7986L177.432 50.1532H163.345ZM196.889 86.7291H185.988L183.658 50.1532H199.222L196.889 86.7291ZM199.998 97.5426C200.046 95.4841 199.208 93.498 197.683 92.0544C196.15 90.5864 194.181 89.8419 191.829 89.8419C189.477 89.8419 187.507 90.5864 185.975 92.0544C184.45 93.498 183.612 95.4841 183.66 97.5426C183.66 101.886 187.317 105.406 191.829 105.406C196.341 105.406 199.998 101.886 199.998 97.5426Z" fill="#1E2B37"/>
</svg>
